<?xml version="1.0" encoding="UTF-8"?>
<svg width="31px" height="70px" viewBox="0 0 31 70" version="1.1" xmlns="http://www.w3.org/2000/svg" xmlns:xlink="http://www.w3.org/1999/xlink">
    <!-- Generator: Sketch 61.2 (89653) - https://sketch.com -->
    <title>logo</title>
    <desc>Created with Sketch.</desc>
    <g id="Page-1" stroke="none" stroke-width="1" fill="none" fill-rule="evenodd">
        <g id="logo" fill="#553BFF" fill-rule="nonzero">
            <path d="M29.8557544,-2.13162821e-14 C30.1975802,0.0014518717 30.5149826,0.177405348 30.6973339,0.466533314 C30.8796851,0.75566128 30.9017184,1.11790219 30.7557544,1.427 L22.6105064,18.6833009 C20.2989081,17.6032684 17.7199045,17 15,17 C12.5545524,17 10.2230047,17.4876632 8.09729994,18.3710465 L0.0957544491,1.427 C-0.0502095406,1.11790219 -0.0281761571,0.75566128 0.154175048,0.466533314 C0.336526252,0.177405348 0.653928712,0.0014518717 0.995754449,-1.42108547e-14 L29.8557544,-2.13162821e-14 Z" id="Combined-Shape"></path>
            <path d="M29.8557544,51.32 C30.1975802,51.3214519 30.5149826,51.4974053 30.6973339,51.7865333 C30.8796851,52.0756613 30.9017184,52.4379022 30.7557544,52.747 L22.6105064,70.0033009 C20.2989081,68.9232684 17.7199045,68.32 15,68.32 C12.5545524,68.32 10.2230047,68.8076632 8.09729994,69.6910465 L0.0957544491,52.747 C-0.0502095406,52.4379022 -0.0281761571,52.0756613 0.154175048,51.7865333 C0.336526252,51.4974053 0.653928712,51.3214519 0.995754449,51.32 L29.8557544,51.32 Z" id="Combined-Shape-Copy" transform="translate(15.425754, 60.661650) scale(1, -1) translate(-15.425754, -60.661650) "></path>
            <circle id="Oval" cx="15" cy="35" r="14"></circle>
        </g>
    </g>
</svg>