<svg xmlns="http://www.w3.org/2000/svg" width="18.937" height="18.937" viewBox="0 0 18.937 18.937">
  <g id="checked" transform="translate(-0.004)">
    <path id="Path_9" data-name="Path 9" d="M9.473,0a9.469,9.469,0,1,0,9.468,9.469A9.468,9.468,0,0,0,9.473,0Zm0,17.162a7.693,7.693,0,1,1,7.693-7.693A7.693,7.693,0,0,1,9.473,17.162ZM13.194,5.441a.824.824,0,0,0-1.148.32l-3.175,5.7L7.1,9.311a.89.89,0,0,0-1.147-.32.875.875,0,0,0-.308,1.192l2.461,3a1.038,1.038,0,0,0,.614.423l0,0h.023a1.074,1.074,0,0,0,1.113-.428L13.5,6.633A.892.892,0,0,0,13.194,5.441Z" fill="#3db39e"/>
  </g>
</svg>
