<svg id="exclamation-mark" xmlns="http://www.w3.org/2000/svg" width="18.946" height="18.946" viewBox="0 0 18.946 18.946">
  <path id="Path_7" data-name="Path 7" d="M9.473,0a9.473,9.473,0,1,0,9.473,9.473A9.473,9.473,0,0,0,9.473,0Zm0,17.17a7.7,7.7,0,1,1,7.7-7.7A7.7,7.7,0,0,1,9.473,17.17Zm0-13.015c-.678,0-1.192.354-1.192.926v5.246c0,.573.513.925,1.192.925.662,0,1.192-.368,1.192-.925V5.08C10.665,4.522,10.136,4.154,9.474,4.154Zm0,8.279a1.182,1.182,0,1,0,1.182,1.183A1.184,1.184,0,0,0,9.474,12.433Z" fill="#e2574c"/>
</svg>
