<svg xmlns="http://www.w3.org/2000/svg" width="11.966" height="16.055" viewBox="0 0 11.966 16.055">
  <g id="rubbish-bin">
      <path id="Path_16" data-name="Path 16" d="M74.582,110.839a.808.808,0,0,0,.807.774h7.543a.808.808,0,0,0,.807-.774l.539-11.371H74.043Zm6.285-8.547a.328.328,0,0,1,.328-.328h.525a.328.328,0,0,1,.328.328v6.5a.328.328,0,0,1-.328.328h-.525a.328.328,0,0,1-.328-.328Zm-2.3,0a.328.328,0,0,1,.328-.328h.525a.328.328,0,0,1,.328.328v6.5a.328.328,0,0,1-.328.328H78.9a.328.328,0,0,1-.328-.328v-6.5Zm-2.3,0a.328.328,0,0,1,.328-.328h.525a.328.328,0,0,1,.328.328v6.5a.328.328,0,0,1-.328.328H76.6a.328.328,0,0,1-.328-.328Z" transform="translate(-73.177 -95.559)" fill="#707070"/>
      <path id="Path_17" data-name="Path 17" d="M63.475.827H60V.169A.169.169,0,0,0,59.826,0H56.172A.169.169,0,0,0,56,.169V.827h-3.48a.507.507,0,0,0-.507.507V2.927H63.982V1.334A.507.507,0,0,0,63.475.827Z" transform="translate(-52.016)" fill="#707070"/>
  </g>
</svg>
