<svg xmlns="http://www.w3.org/2000/svg" width="20.009" height="18.291" viewBox="0 0 20.009 18.291">
  <g id="warning" transform="translate(0 -20.882)">
    <g id="Group_24" data-name="Group 24" transform="translate(0 20.882)">
      <path id="Path_12" data-name="Path 12" d="M219.253,333.382a1.028,1.028,0,1,0,0,2.057,1.029,1.029,0,0,0,0-2.057Z" transform="translate(-209.249 -320.528)" fill="#ffca00"/>
      <path id="Path_13" data-name="Path 13" d="M19.522,37.38a3.511,3.511,0,0,0,.008-3.554L13.089,22.671a3.549,3.549,0,0,0-6.162,0L.478,33.834a3.562,3.562,0,0,0,3.085,5.339H16.429A3.542,3.542,0,0,0,19.522,37.38Zm-1.4-.806a1.944,1.944,0,0,1-1.7.983H3.558a1.917,1.917,0,0,1-1.678-.962,1.946,1.946,0,0,1,0-1.962L8.326,23.469a1.937,1.937,0,0,1,3.365,0l6.445,11.163A1.92,1.92,0,0,1,18.123,36.574Z" transform="translate(0 -20.882)" fill="#ffca00"/>
      <path id="Path_14" data-name="Path 14" d="M218.519,157.205a1.118,1.118,0,0,0-.794,1.123c.025.325.045.654.07.979.07,1.238.14,2.451.21,3.69a.754.754,0,0,0,.769.724.769.769,0,0,0,.769-.749c0-.255,0-.489.025-.749.045-.794.095-1.588.14-2.382.025-.514.07-1.028.095-1.542a1.27,1.27,0,0,0-.095-.514A1.031,1.031,0,0,0,218.519,157.205Z" transform="translate(-208.77 -151.57)" fill="#ffca00"/>
    </g>
  </g>
</svg>
